/* XPM */
static char * close_pressed_xpm[] = {
"43 17 9 1",
" 	c None",
".	c #5294E2",
"+	c #FFFFFF",
"@	c #5483AC",
"#	c #5482AB",
"$	c #5484AD",
"%	c #FFF5F5",
"&	c #FFF6F6",
"*	c #FFFAFA",
"...........................................",
"...........................................",
"...........................................",
"...........................................",
"...........................................",
"..................+@...#+..................",
"..................@+@.#+$..................",
"...................@+%+$...................",
"....................&+*....................",
"...................#+*+@...................",
"..................#+$.@+@..................",
"..................+$...@+..................",
"...........................................",
"...........................................",
"...........................................",
"...........................................",
"..........................................."};
