/* XPM */
static char * close_inactive_xpm[] = {
"43 17 7 1",
" 	c None",
".	c #202021",
"+	c #202020",
"@	c #7F7F7F",
"#	c #535E57",
"$	c #505852",
"%	c #536059",
"...........................................",
"...........................................",
"...........................................",
"...........................................",
"..................+.....+..................",
".................+@#...$@+.................",
"..................#@#.$@%..................",
"...................#@@@%...................",
"....................@@@....................",
"...................$@@@#...................",
"..................$@%.#@#..................",
".................+@%...#@+.................",
"..................+.....+..................",
"...........................................",
"...........................................",
"...........................................",
"..........................................."};
