/* XPM */
static char * close_active_xpm[] = {
"43 17 9 1",
" 	c None",
".	c #202021",
"+	c #202020",
"@	c #D2D2D2",
"#	c #535E57",
"$	c #505852",
"%	c #536059",
"&	c #D0CACA",
"*	c #D1CECE",
"...........................................",
"...........................................",
"...........................................",
"...........................................",
"..................+.....+..................",
".................+@#...$@+.................",
"..................#@#.$@%..................",
"...................#@&@%...................",
"....................&@*....................",
"...................$@*@#...................",
"..................$@%.#@#..................",
".................+@%...#@+.................",
"..................+.....+..................",
"...........................................",
"...........................................",
"...........................................",
"..........................................."};
