/* XPM */
static char * close_prelight_xpm[] = {
"43 17 12 1",
" 	c None",
".	c #404857",
"+	c #424F5B",
"@	c #3F4F5A",
"#	c #5294E2",
"$	c #527EAA",
"%	c #527DA9",
"&	c #425667",
"*	c #527FAB",
"=	c #404F5B",
"-	c #425668",
";	c #425768",
"...........................................",
"...........................................",
"...........................................",
"...........................................",
"..................+.....@..................",
".................+#$...%#&.................",
"..................$#$.%#*..................",
"...................$###*...................",
"....................###....................",
"...................%###$...................",
"..................%#*.$#$..................",
".................=#*...$#-.................",
"..................&.....;..................",
"...........................................",
"...........................................",
"...........................................",
"..........................................."};
