/* XPM */
static char * hide_inactive_xpm[] = {
"24 17 3 1",
" 	c None",
".	c #202020",
"+	c #707070",
"........................",
"........................",
"........................",
"........................",
"........................",
"........................",
"........................",
"........................",
"........................",
"........................",
"........++++++++........",
"........++++++++........",
"........................",
"........................",
"........................",
"........................",
"........................"};
