/* XPM */
static char * hide_active_xpm[] = {
"24 17 3 1",
" 	c None",
".	c #202020",
"+	c #FFFFFF",
"........................",
"........................",
"........................",
"........................",
"........................",
"........................",
"........................",
"........................",
"........................",
"........................",
"........++++++++........",
"........++++++++........",
"........................",
"........................",
"........................",
"........................",
"........................"};
