/* XPM */
static char * close_prelight_xpm[] = {
"18 22 3 1",
" 	c None",
".	c #D0DBD6",
"+	c #002B36",
"..................",
"++++++++++++++++++",
"++++++++++++++++++",
"++++++++++++++++++",
"++++++++++++++++++",
"++++++++++++++++++",
"++++++++++++++++++",
"+++++.++++++.+++++",
"++++...++++...++++",
"+++++...++...+++++",
"++++++......++++++",
"+++++++....+++++++",
"+++++++....+++++++",
"++++++......++++++",
"+++++...++...+++++",
"++++...++++...++++",
"+++++.++++++.+++++",
"++++++++++++++++++",
"++++++++++++++++++",
"++++++++++++++++++",
"++++++++++++++++++",
"++++++++++++++++++"};
