/* XPM */
static char * maximize_toggled_inactive_xpm[] = {
"18 22 3 1",
" 	c None",
".	c #688891",
"+	c #002B36",
"..................",
"++++++++++++++++++",
"++++++++++++++++++",
"++++++++++++++++++",
"++++++++++++++++++",
"++++++++++++++++++",
"++++++++++++++++++",
"++++..........++++",
"++++..........++++",
"++++.++++++++.++++",
"++++.++++++++.++++",
"++++.++++++++.++++",
"++++.++++++++.++++",
"++++.++++++++.++++",
"++++.++++++++.++++",
"++++.++++++++.++++",
"++++..........++++",
"++++++++++++++++++",
"++++++++++++++++++",
"++++++++++++++++++",
"++++++++++++++++++",
"++++++++++++++++++"};
