/* XPM */
static char * right_inactive_xpm[] = {
"2 4 2 1",
" 	c #002B36",
".	c #688891",
" .",
" .",
" .",
" ."};
