/* XPM */
static char * title_3_active_xpm[] = {
"15 22 2 1",
" 	c #D0DBD6",
".	c #002B36",
"               ",
"...............",
"...............",
"...............",
"...............",
"...............",
"...............",
"...............",
"...............",
"...............",
"...............",
"...............",
"...............",
"...............",
"...............",
"...............",
"...............",
"...............",
"...............",
"...............",
"...............",
"..............."};
