/* XPM */
static char * title_4_inactive_xpm[] = {
"15 22 3 1",
" 	c None",
".	c #688891",
"+	c #002B36",
"...............",
"+++++++++++++++",
"+++++++++++++++",
"+++++++++++++++",
"+++++++++++++++",
"+++++++++++++++",
"+++++++++++++++",
"+++++++++++++++",
"+++++++++++++++",
"+++++++++++++++",
"+++++++++++++++",
"+++++++++++++++",
"+++++++++++++++",
"+++++++++++++++",
"+++++++++++++++",
"+++++++++++++++",
"+++++++++++++++",
"+++++++++++++++",
"+++++++++++++++",
"+++++++++++++++",
"+++++++++++++++",
"+++++++++++++++"};
