/* XPM */
static char * top_right_inactive_xpm[] = {
"2 22 2 1",
" 	c #688891",
".	c #002B36",
"  ",
". ",
". ",
". ",
". ",
". ",
". ",
". ",
". ",
". ",
". ",
". ",
". ",
". ",
". ",
". ",
". ",
". ",
". ",
". ",
". ",
". "};
